<?xml version="1.0" encoding="UTF-8"?>
<svg id="Layer_1" xmlns="http://www.w3.org/2000/svg" version="1.1" viewBox="0 0 8091 1744">
  <!-- Generator: Adobe Illustrator 29.8.1, SVG Export Plug-In . SVG Version: 2.1.1 Build 2)  -->
  <defs>
    <style>
      .st0 {
        opacity: 1;
      }

      .st0, .st1, .st2, .st3, .st4, .st5, .st6, .st7, .st8, .st9, .st10, .st11, .st12, .st13, .st14, .st15, .st16, .st17, .st18, .st19, .st20, .st21, .st22, .st23, .st24, .st25, .st26, .st27, .st28, .st29, .st30, .st31, .st32, .st33, .st34, .st35, .st36, .st37, .st38 {
        fill-rule: evenodd;
        isolation: isolate;
      }

      .st0, .st2, .st4, .st9, .st10, .st13, .st16, .st17, .st20, .st25, .st27, .st29, .st31, .st36 {
        fill: #2d2f31;
      }

      .st1 {
        opacity: .9;
      }

      .st1, .st5, .st6, .st7, .st8, .st11, .st12, .st15, .st18, .st22, .st23, .st24, .st28, .st33, .st35, .st38 {
        fill: #5ab847;
      }

      .st2 {
        opacity: 1;
      }

      .st3 {
        opacity: 1;
      }

      .st3, .st14, .st21, .st30 {
        fill: #404041;
      }

      .st4 {
        opacity: .9;
      }

      .st5 {
        opacity: .9;
      }

      .st6 {
        opacity: .9;
      }

      .st7 {
        opacity: .9;
      }

      .st8 {
        opacity: .9;
      }

      .st9 {
        opacity: 1;
      }

      .st10 {
        opacity: 1;
      }

      .st11 {
        opacity: .9;
      }

      .st12 {
        opacity: 1;
      }

      .st13 {
        opacity: 1;
      }

      .st14 {
        opacity: 1;
      }

      .st15 {
        opacity: 1;
      }

      .st16 {
        opacity: 1;
      }

      .st17 {
        opacity: 1;
      }

      .st18 {
        opacity: .9;
      }

      .st19, .st26, .st34, .st37 {
        fill: #3f4040;
      }

      .st19, .st30, .st32 {
        opacity: 1;
      }

      .st20 {
        opacity: 1;
      }

      .st21, .st29 {
        opacity: 1;
      }

      .st22 {
        opacity: .9;
      }

      .st23 {
        opacity: .9;
      }

      .st24 {
        opacity: .9;
      }

      .st25 {
        opacity: 1;
      }

      .st26 {
        opacity: 1;
      }

      .st27 {
        opacity: 1;
      }

      .st28 {
        opacity: .9;
      }

      .st31 {
        opacity: 1;
      }

      .st32 {
        fill: #5ab846;
      }

      .st33 {
        opacity: .9;
      }

      .st34 {
        opacity: 1;
      }

      .st35 {
        opacity: .9;
      }

      .st36 {
        opacity: 1;
      }

      .st37 {
        opacity: 1;
      }

      .st38 {
        opacity: .9;
      }
    </style>
  </defs>
  <path class="st34" d="M172.5-.5h606C557.8,492.8,337.2,986.1,116.5,1479.5c-3.5.6-6.8-.3-10-2.5-62.4-34.6-98.1-87.4-107-158.5V177.5C8.8,107.4,44.1,54.9,105.5,20,126.8,9.3,149.1,2.4,172.5-.5Z"/>
  <path class="st26" d="M1154.5-.5h214c-25.3,17.6-41.5,41.6-48.5,72-5.8,23.3-9,47-9.5,71h86c.1-15.2,1.9-30.2,5.5-45,1.9-6.7,4.5-13,8-19,2.6-3.3,5.8-5.8,9.5-7.5,70-1.7,140-2,210-1,6,.3,10.8,2.8,14.5,7.5,17.5,28.8,17.5,57.5,0,86-3.1,3.4-6.9,5.6-11.5,6.5-78.3,9.7-156.7,19.4-235,29-35.1,6.6-59.6,26.5-73.5,59.5-11,29-15.7,59-14,90-52.3-116.1-104.2-232.5-155.5-349Z"/>
  <path class="st3" d="M1685.5-.5h254c1.4,1,3.1,1.3,5,1-95.6,25.9-165.2,83.2-209,172,4.2-16.8,7.2-33.8,9-51-1.5-23.8-6.4-47.1-14.5-70-9-22.5-23.8-39.8-44.5-52Z"/>
  <path class="st32" d="M1947.5-.5h1022c72.9,17.1,130.4,56.4,172.5,118,35.5,56,59.8,116.7,73,182,15,72.6,23.1,145.9,24.5,220h-276c-1.7-50.6-7.8-100.6-18.5-150-5.5-25.6-15.5-49.3-30-71-7.1-9.1-15.9-16-26.5-20.5-4.2-1.5-8.6-2.5-13-3-280.7-1-561.4-.7-842,1-14.5,3.8-26.3,11.6-35.5,23.5-12.5,18-21.5,37.6-27,59-9.5,34.4-14.5,69.4-15,105,3.4,30.5,10.4,60.2,21,89,6.6,17.6,16.8,32.8,30.5,45.5,7.4,5.9,15.7,9.9,25,12,313.6,1.3,627.3,2,941,2,96.3,25,166.1,82.2,209.5,171.5,23.3,50,38.9,102.3,47,157,10.3,60.5,11.3,121.2,3,182-6.3,59.4-19.9,117.1-41,173-20.2,52.2-50.7,97.4-91.5,135.5-8.3,7.2-17,13.8-26,20,1668,.3,3336,.7,5004,1l1.5,1.5c.7,14,.7,28,0,42-.3.8-.8,1.5-1.5,2-865.3.7-1730.6,1-2596,1-1180,.2-2360-.4-3540-2-67.6-16.9-121.8-53.5-162.5-110-5.2-7.7-10.4-15.4-15.5-23-19.2-31.3-34.2-64.6-45-100-22.1-74.4-35.3-150.4-39.5-228-1.3-19-2.1-38-2.5-57h276c1.2,46.8,6.4,93.1,15.5,139,5.5,29.7,16.5,57,33,82,9.5,12.5,22,20,37.5,22.5,281.4,1,562.7.7,844-1,15.5-4.5,28-13.3,37.5-26.5,14.7-23.4,24.7-48.7,30-76,5.3-25.1,9.1-50.4,11.5-76-3.2-31.8-10-62.8-20.5-93-6.6-19.1-17.1-35.6-31.5-49.5-8.3-6.5-17.6-10.8-28-13-309.7-.5-619.3-.7-929-.5-82.1-18-145.9-62.3-191.5-133-33.4-55.2-56.4-114.5-69-178-8.9-44.6-15.1-89.6-18.5-135h4v-10c-.2-26.5,1.8-52.8,6-79,6.7-50.1,19-98.8,37-146,3.9-11.4,8.5-22.4,14-33,43.8-88.8,113.4-146.1,209-172,1.3.2,2.3,0,3-1Z"/>
  <path class="st14" d="M1721.5,205.5c-18,47.2-30.3,95.9-37,146h-288c-.2-10.3,0-20.7.5-31,1.5-11.5,5.2-22.1,11-32,2.6-3.3,5.8-5.8,9.5-7.5,81.3-10.6,162.6-20.9,244-31,26-6.8,46-21.7,60-44.5Z"/>
  <path class="st37" d="M965.5,364.5c2.6,3.2,4.8,6.9,6.5,11,82.2,183.5,164.7,366.8,247.5,550-169,1.2-338,1.3-507,.5,84.5-187.1,168.8-374.3,253-561.5Z"/>
  <path class="st30" d="M1678.5,430.5v10h-4c3.4,45.4,9.6,90.4,18.5,135,12.6,63.5,35.6,122.8,69,178,45.6,70.7,109.4,115,191.5,133v92h-276c.4,19,1.2,38,2.5,57,4.2,77.6,17.4,153.6,39.5,228-124.8-277.3-248.8-554.9-372-833h331Z"/>
  <path class="st4" d="M7985.5,937.5c15-.3,30,0,45,1-16.5,25.6-33.1,51.1-50,76.5-10.7.5-21.3.7-32,.5,11.8-26.2,24.1-52.2,37-78Z"/>
  <path class="st25" d="M3620.5,962.5h43c-.2,92.3,0,184.7.5,277,3.6,22.5,16.8,34.2,39.5,35v40c-22.3,1.5-42.7-4-61-16.5-12.9-12-20.1-26.8-21.5-44.5-.5-97-.7-194-.5-291Z"/>
  <path class="st13" d="M3754.5,962.5h44c-.2,93,0,186,.5,279,4,21.9,17.2,32.9,39.5,33v40c-19.9,1.1-38.6-3-56-12.5-18.1-13.9-27.3-32.4-27.5-55.5-.5-94.7-.7-189.3-.5-284Z"/>
  <path class="st29" d="M5197.5,966.5c22.3-.5,44,3,65,10.5,4.7,2.3,9,5.2,13,8.5-4.7,13.7-9.3,27.3-14,41-18.8-11.8-39.3-18.5-61.5-20-35.1,3.5-50.7,22.8-47,58,2.3,13.4,8.8,24.3,19.5,32.5,6.7,4,13.3,8,20,12,17.5,8.3,34.9,17,52,26,20.1,11.7,33.9,28.5,41.5,50.5,6.2,21.2,6.8,42.5,2,64-14.2,36.5-40.7,58-79.5,64.5-25.8,3.6-51.1,1.6-76-6-8.5-3.5-16.7-7.7-24.5-12.5,0-3.1.7-6.1,2-9,4.4-11.9,9.2-23.6,14.5-35,27.4,19.8,57.4,25.7,90,17.5,25.7-12.7,35.5-33.2,29.5-61.5-2.6-11-8.1-20.1-16.5-27.5-7.1-5.8-14.8-10.8-23-15-18.3-8.5-36.3-17.5-54-27-33.5-22-48-53.2-43.5-93.5,4.3-33.4,21.8-56.9,52.5-70.5,12.4-4.6,25.1-7.1,38-7.5Z"/>
  <path class="st29" d="M7064.5,966.5c21.5-.3,42.5,2.9,63,9.5,5.9,2.2,10.9,5.6,15,10-4.4,13.6-9,27.1-14,40.5-21.9-14.3-45.9-20.5-72-18.5-24,5.8-36.3,21.2-37,46-.4,17.6,6.3,32,20,43,21.6,13,43.9,24.6,67,35,15.4,8.6,28.3,20.1,38.5,34.5,13.1,26.5,16.4,54.1,10,83-10,28-28.8,47.5-56.5,58.5-22.1,7.1-44.8,9.5-68,7-20.8-1.7-39.5-8.7-56-21,5.2-14.4,10.9-28.6,17-42.5,22.2,15.6,46.9,22.7,74,21.5,29.2-4.3,45.2-21.2,48-50.5-.6-17.4-7.3-31.9-20-43.5-6.4-4.7-13.1-9.1-20-13-20-9.4-39.7-19.4-59-30-30.9-22.1-44.4-52.2-40.5-90.5,4.5-34.9,23-59,55.5-72.5,11.5-3.7,23.2-5.9,35-6.5Z"/>
  <path class="st29" d="M3450.5,968.5h14c40.9,113.9,81.5,227.9,122,342-16.7.2-33.3,0-50-.5-7.8-23.3-15.2-46.8-22-70.5h-122c-7.5,23.7-15.1,47.4-23,71h-51c43.8-114.1,87.8-228.1,132-342ZM3454.5,1059.5c16.1,48,31.4,96.3,46,145-31.7.2-63.3,0-95-.5,16.6-48.1,33-96.2,49-144.5Z"/>
  <path class="st27" d="M3923.5,970.5c20.4-2,31.8,7.2,34,27.5-1.8,16.3-10.8,25.4-27,27.5-18.5-2.7-27.4-13.3-26.5-32,2.1-11.5,8.6-19.2,19.5-23Z"/>
  <path class="st36" d="M6506.5,970.5c24.5-1,35.3,10.6,32.5,35-6.6,17.2-18.8,23.1-36.5,17.5-15-8.7-19.5-21.2-13.5-37.5,3.9-7.4,9.8-12.4,17.5-15Z"/>
  <path class="st10" d="M7750.5,995.5h3v68h66v35h-66c-.2,44.3,0,88.7.5,133,1.3,34.9,19.1,49.8,53.5,44.5,7.6-1.6,15-4.1,22-7.5,2.5,13.3,4.9,26.6,7,40-24.7,5.9-49.7,7.4-75,4.5-29.5-10-46.3-30.5-50.5-61.5-.5-51-.7-102-.5-153h-28v-35h28c-.3-17.3,0-34.7,1-52,13.1-5.4,26.1-10.7,39-16Z"/>
  <path class="st29" d="M6393.5,1047.5c1.8.6,3.4,1.4,5,2.5,8.4,8,16.4,16.4,24,25-8,6.7-16,13.3-24,20,10.8,17,15.8,35.7,15,56,.4,36.9-15.3,64.6-47,83-8,3.7-16.3,6.3-25,8-17.7,2-35.4,4.3-53,7-6.1,1.7-11.6,4.5-16.5,8.5-2.5,4.6-1.7,8.5,2.5,11.5,8.5,2.4,17.2,3,26,2,17.4-3,34.9-5.2,52.5-6.5,53.4,1.2,77.4,28.2,72,81-5.5,21.1-18,36.6-37.5,46.5-31.4,14.8-64,18.5-98,11-16.1-3.5-31.5-9.2-46-17-4.4-2.5-8.4-5.5-12-9,7.3-12.1,15-23.9,23-35.5,20.7,15.2,43.9,23.9,69.5,26,17.6.2,33.8-4.3,48.5-13.5,14.1-12.5,15.6-26.3,4.5-41.5-9.8-7-20.8-10.3-33-10-18.8,3-37.6,5.7-56.5,8-14.1.3-27.1-3.2-39-10.5-12.2-12.6-15-27.1-8.5-43.5,9.4-11.3,21.2-19,35.5-23-32.4-18.2-48.4-46-48-83.5.6-39.9,18.9-68.2,55-85,23.1-7.9,46.5-8.5,70-2,7.4,2,14.2,5.2,20.5,9.5,7.7-7.6,14.6-15.9,20.5-25ZM6317.5,1094.5c24.7.4,40.9,12.4,48.5,36,5.7,21.7,2.7,42-9,61-15.9,17.1-34.7,21.2-56.5,12.5-15.5-9.5-24.7-23.3-27.5-41.5-3.4-18.8.6-35.8,12-51,8.8-9.8,19.6-15.5,32.5-17Z"/>
  <path class="st17" d="M4082.5,1058.5c21.7-1.2,42.7,2,63,9.5,23.1,11,36.9,29.1,41.5,54.5,1.4,6.6,2.4,13.3,3,20,0,40.4.7,80.7,2,121,1.6,11.9,7.3,21.2,17,28,.5,7.7.7,15.3.5,23-14,.8-27.3-1.7-40-7.5-8.5-5.9-14.5-13.7-18-23.5-16.2,18.1-36.5,28.3-61,30.5-38.4,5.2-65.6-9.6-81.5-44.5-12.3-47.9,3.5-83,47.5-105.5,29.5-13.1,59.8-15.6,91-7.5,1-19.2-5.3-35.4-19-48.5-10.2-6.5-21.3-9.7-33.5-9.5-19.6-.1-37.5,5.4-53.5,16.5-1.7,1.7-3.3,3.3-5,5-.9.6-1.8.4-2.5-.5-6-11.8-11.8-23.6-17.5-35.5,8.8-7.7,18.8-13.4,30-17,11.9-4.1,23.9-6.9,36-8.5ZM4114.5,1184.5c10.9.4,21.5,2,32,5,1.2,19.7,1.3,39.3.5,59-22.2,29.1-50.3,37.2-84.5,24.5-8.5-5.9-13.4-14.1-14.5-24.5-1.4-24,8.5-41.8,29.5-53.5,11.7-6.2,24-9.7,37-10.5Z"/>
  <path class="st10" d="M4358.5,1058.5c17.9-1.3,34.9,1.9,51,9.5,15,9.3,25.2,22.5,30.5,39.5,3.3,10.4,5.3,21.1,6,32,.5,57,.7,114,.5,171h-43c.2-52,0-104-.5-156-.2-14.5-3.5-28.1-10-41-9.7-12-22.3-17.7-38-17-23.4,1.5-41.7,11.9-55,31-.5,61-.7,122-.5,183h-43v-247c10-.2,20,0,30,.5,4.5,9.7,8.7,19.5,12.5,29.5,14.3-21.1,34.1-32.8,59.5-35Z"/>
  <path class="st0" d="M4603.5,1058.5c31-1.1,59,7.4,84,25.5-6.8,10.6-14.1,20.8-22,30.5-25.9-18.2-53.9-22.3-84-12.5-22,10.9-35.9,28.4-41.5,52.5-6.1,26.2-5.1,52.2,3,78,13.8,30,37.3,45,70.5,45,21.1-1.5,39.8-9,56-22.5,1-.6,1.8-.4,2.5.5,6.2,12.1,11.6,24.4,16,37-30.7,18.1-63.9,25.3-99.5,21.5-48.7-8.1-79.9-35.9-93.5-83.5-8.2-36.2-5.5-71.5,8-106,21-40.9,54.5-62.9,100.5-66Z"/>
  <path class="st16" d="M4819.5,1058.5c27.7-2,53.4,4.1,77,18.5,28,21.8,41.7,50.7,41,86.5.1,9.5-.9,18.8-3,28h-172c-1,22.1,4.9,42.1,17.5,60,19.3,21.1,43.1,29.3,71.5,24.5,17.3-2.7,32.6-9.5,46-20.5,5.4,8.5,10.6,17.2,15.5,26,1.6,2.2,2.3,4.5,2,7-20.2,15.2-43.1,23.7-68.5,25.5-55.4,5.5-95.3-16.7-119.5-66.5-14.3-40.1-13.9-80.1,1-120,18.4-39.2,48.9-62.2,91.5-69ZM4821.5,1096.5c30.5-3.2,53,8.5,67.5,35,3.5,8.7,5.4,17.7,5.5,27h-131c5.3-33.9,24.6-54.6,58-62Z"/>
  <path class="st29" d="M5665.5,1058.5c54-2.1,83.2,23.9,87.5,78,.5,58,.7,116,.5,174h-43c.2-53.7,0-107.3-.5-161-1.7-42.3-23.2-59.2-64.5-50.5-15.7,4.9-28.2,14.1-37.5,27.5-.5,61.3-.7,122.7-.5,184h-44v-247c10-.2,20,0,30,.5,4.4,9.9,8.9,19.7,13.5,29.5,13.7-21.3,33.2-32.9,58.5-35Z"/>
  <path class="st16" d="M5900.5,1058.5c26.4-1.8,51,3.7,74,16.5,30.5,21.6,45.1,51.2,44,89,.2,8.6-.6,17.1-2.5,25.5-57.3,2-114.8,2.7-172.5,2-.9,22.1,4.9,42.1,17.5,60,19.6,21.3,43.8,29.4,72.5,24.5,17-2.5,32-9.4,45-20.5,5.1,7.8,9.9,15.8,14.5,24,1.9,2.8,2.9,5.8,3,9-14.3,11.4-30.4,18.9-48.5,22.5-21.3,4.2-42.6,4.5-64,1-34.5-9.2-59.4-30-74.5-62.5-13.4-35.4-15-71.4-5-108,11.2-34.9,33.4-60.1,66.5-75.5,9.8-3.8,19.8-6.3,30-7.5ZM5902.5,1096.5c30.5-3.2,53,8.5,67.5,35,3.5,8.7,5.4,17.7,5.5,27h-131c5.3-33.9,24.6-54.6,58-62Z"/>
  <path class="st20" d="M6169.5,1058.5c13.8,0,27.5,1.4,41,4-5.4,14.9-11.4,29.6-18,44-22.4-14.9-43.3-12.9-62.5,6-13.4,15.1-20.4,32.7-21,53-.5,48.3-.7,96.7-.5,145h-43v-247h43c-.2,12.3,0,24.7.5,37,13-24.5,33.2-38.5,60.5-42Z"/>
  <path class="st16" d="M6686.5,1058.5c29.1-2.2,55.8,4.6,80,20.5,26.2,21.9,38.9,50,38,84.5.2,8.8-.6,17.4-2.5,26-57.3,2-114.8,2.7-172.5,2-1.3,27.9,8,51.4,28,70.5,18.6,13.2,39.3,17.9,62,14,17-2.5,32-9.4,45-20.5,5.4,8.5,10.6,17.1,15.5,26,1.6,2.2,2.3,4.5,2,7-14.2,11.4-30.4,18.9-48.5,22.5-21.3,4.2-42.6,4.5-64,1-34.5-9.2-59.4-30-74.5-62.5-15.8-42.3-15.1-84.3,2-126,18.6-37.4,48.4-59.1,89.5-65ZM6688.5,1096.5c30.5-3.2,53,8.5,67.5,35,3.5,8.7,5.4,17.7,5.5,27h-131c5.3-33.9,24.6-54.6,58-62Z"/>
  <path class="st31" d="M7271.5,1058.5c21.7-1.2,42.7,2,63,9.5,23.1,11,36.9,29.1,41.5,54.5,1.4,6.9,2.4,13.9,3,21,.3,37.7.7,75.3,1,113,.5,14.6,6.5,26.3,18,35,.5,7.7.7,15.3.5,23-14,.8-27.3-1.7-40-7.5-8.5-5.9-14.5-13.7-18-23.5-16.2,18.1-36.6,28.3-61,30.5-39.6,5-67.1-10.9-82.5-47.5-10.1-42.1,3.1-74.6,39.5-97.5,31.7-17.4,65-21.6,100-12.5.6-16.3-3.9-31-13.5-44-11-10-24-14.7-39-14-15.6.2-30.5,3.7-44.5,10.5-5,3.2-9.7,6.8-14,11-1,.6-1.8.4-2.5-.5-6-11.8-11.8-23.6-17.5-35.5,8.8-7.7,18.8-13.4,30-17,11.9-4.1,23.9-6.9,36-8.5ZM7303.5,1184.5c10.9.4,21.5,2,32,5,1.2,19.7,1.3,39.3.5,59-22.2,29.1-50.3,37.2-84.5,24.5-11.7-9.3-16.5-21.5-14.5-36.5,3.5-18.2,13.4-32.1,29.5-41.5,11.7-6.1,24.1-9.6,37-10.5Z"/>
  <path class="st2" d="M7547.5,1058.5c54.1-2.1,83.2,23.9,87.5,78,.5,58,.7,116,.5,174h-43c.2-53,0-106-.5-159-.4-14.8-4.4-28.4-12-41-9.9-9.8-21.9-14.4-36-14-23.2,1.9-41.5,12.2-55,31-.5,61-.7,122-.5,183h-43v-247c10-.2,20,0,30,.5,4.4,9.9,8.9,19.7,13.5,29.5,13.6-21.5,33.1-33.2,58.5-35Z"/>
  <path class="st16" d="M7963.5,1058.5c27.7-2,53.4,4.1,77,18.5,28,21.8,41.7,50.7,41,86.5.1,9.5-.9,18.8-3,28h-172c-1,22.1,4.9,42.1,17.5,60,19.2,21.3,43,29.5,71.5,24.5,17.4-2.3,32.8-9.1,46-20.5,5,7.9,9.9,15.9,14.5,24,1.9,2.8,2.9,5.8,3,9-14.3,11.4-30.4,18.9-48.5,22.5-19.9,3.7-39.9,4.4-60,2-36.6-8.2-62.7-29.4-78.5-63.5-15.3-40.6-15.3-81.3,0-122,18.4-39.2,48.9-62.2,91.5-69ZM7965.5,1096.5c30.5-3.2,53,8.5,67.5,35,3.5,8.7,5.4,17.7,5.5,27h-131c5.3-33.9,24.6-54.6,58-62Z"/>
  <path class="st9" d="M3873.5,1063.5h77v247h-44v-209h-33v-38Z"/>
  <path class="st29" d="M5310.5,1064.5c14.8-1.3,29.8-1.3,45,0,23.1,62.4,46.2,124.7,69.5,187,20.9-62.3,41.5-124.6,62-187,14.8-1,29.6-1.3,44.5-1-34.3,100-69.4,199.6-105.5,299-15.3,21.9-36.1,35.7-62.5,41.5-8.9,1.9-17.9,2.7-27,2.5v-40c23,.8,42.1-7.2,57.5-24,5.6-8.5,7.6-17.8,6-28-1.1-13.1-4.1-25.8-9-38-26.6-70.9-53.4-141.6-80.5-212Z"/>
  <path class="st2" d="M6456.5,1063.5h76v247h-43v-209h-33v-38Z"/>
  <path class="st19" d="M590.5,1201.5c250.3-.2,500.7,0,751,.5,44.1,98.1,88.1,196.3,132,294.5-338.3,1.2-676.7,1.3-1015,.5,44.1-98.4,88.1-196.9,132-295.5Z"/>
  <path class="st21" d="M1764.5,1363.5c5.1,7.6,10.3,15.3,15.5,23,40.8,56.5,94.9,93.1,162.5,110-39.7,1.3-79.3,1.3-119,0-20-44.2-39.6-88.6-59-133Z"/>
  <path class="st12" d="M4916.5,1595.5h18c-.2,35.3,0,70.7.5,106,.6,9.8,5.8,15.1,15.5,16v17c-11.7,1.2-21.5-2.5-29.5-11-1.9-3.4-3.3-7.1-4-11-.5-39-.7-78-.5-117Z"/>
  <path class="st24" d="M3367.5,1596.5c12.9-.5,25.2,1.8,37,7,1.1,1.2,1.3,2.6.5,4-1.5,5.1-3.7,9.7-6.5,14-34.6-14.4-55.1-3.1-61.5,34-3,18.8,1,35.8,12,51,10.1,9.8,21.9,12.6,35.5,8.5,6.3-2.4,11.6-6.3,16-11.5,4,4.9,7.7,10.1,11,15.5-18.6,16.3-39.6,20.3-63,12-14.3-7.5-23.8-19-28.5-34.5-5.9-19.7-5.9-39.3,0-59,7.8-23.3,23.6-37,47.5-41Z"/>
  <path class="st33" d="M4698.5,1598.5c12.4-1.7,17.6,3.6,15.5,16-3.9,6.5-9.4,8.4-16.5,5.5-4.7-4.1-6.2-9.3-4.5-15.5,1.4-2.5,3.2-4.5,5.5-6Z"/>
  <path class="st28" d="M5859.5,1598.5c13-.2,26,0,39,.5,32.5,3.5,45.7,21.3,39.5,53.5-5,17.4-16.5,27.2-34.5,29.5-8.7,1.2-17.4,1.4-26,.5v50h-20c-.6-44.9,0-89.6,2-134ZM5879.5,1616.5c12.5-1.3,24,1.3,34.5,8,8.2,13.1,6.7,24.9-4.5,35.5-10.1,4.4-20.6,5.6-31.5,3.5-.2-7.7-.3-15.3-.5-23,0-8.2.7-16.2,2-24Z"/>
  <path class="st23" d="M7514.5,1598.5c12.5-1.7,17.7,3.7,15.5,16-5.8,8.4-12.5,9.1-20,2-3-7.3-1.5-13.3,4.5-18Z"/>
  <path class="st7" d="M7274.5,1607.5c2,8.6,2.6,17.6,2,27h25v15h-25c-.5,20.1,0,40.1,1.5,60,2.8,5.7,7.5,8.7,14,9,4.8-.5,9.2-1.8,13.5-4,1.6,5.9,2.6,11.9,3,18-9.9,1.8-19.9,2.3-30,1.5-11.9-3.9-18.7-12.1-20.5-24.5-.5-20-.7-40-.5-60h-11v-15h11c-.2-6.7,0-13.3.5-20,5.6-2.3,11.1-4.6,16.5-7Z"/>
  <path class="st28" d="M3637.5,1632.5c27.4-1.7,43.6,10.9,48.5,38,1.4,12.9.4,25.6-3,38-9.6,20.7-25.8,29.2-48.5,25.5-20.4-5.2-31.6-18.4-33.5-39.5-2.1-14.3,0-28,6-41,7.1-11.6,17.2-18.6,30.5-21ZM3640.5,1648.5c17.3.4,26.1,9.4,26.5,27,1.6,12-.4,23.3-6,34-8.7,9.8-18.8,11.6-30.5,5.5-5.4-5-8.6-11.2-9.5-18.5-2.1-10.8-1.5-21.5,2-32,1.5-3.9,3.7-7.4,6.5-10.5,3.5-2.4,7.2-4.2,11-5.5Z"/>
  <path class="st35" d="M3919.5,1632.5c22.8-2,35.3,8.3,37.5,31,.5,23,.7,46,.5,69h-19c.4-24,0-48-1.5-72-4-9.6-11.2-13.1-21.5-10.5-6.4,1.6-11.6,5.1-15.5,10.5-.5,24-.7,48-.5,72h-18v-98c4.4-.2,8.7,0,13,.5,1.6,3.4,3.1,6.9,4.5,10.5,5-7.3,11.9-11.6,20.5-13Z"/>
  <path class="st8" d="M4177.5,1632.5c11.9-.6,22.9,2.1,33,8-1.5,5.9-3.5,11.5-6,17-8.6-8-18.2-9.9-29-5.5-5.2,6.1-4.5,11.8,2,17,10.1,4.6,19.8,9.9,29,16,8.9,11.2,10.4,23.3,4.5,36.5-5.4,7.1-12.5,11.3-21.5,12.5-11,1.5-21.7.1-32-4-2.4-.8-4.4-2.2-6-4,1.9-6,4.3-11.9,7-17.5,6.7,5.1,14.2,8.4,22.5,10,12.4-1.2,16.4-7.5,12-19-2.2-2.5-4.7-4.7-7.5-6.5-11-4.1-20.5-10.2-28.5-18.5-10-22.3-3.2-36.3,20.5-42Z"/>
  <path class="st22" d="M4441.5,1632.5c35.7-.8,51.9,16.5,48.5,52-22.3,2-44.8,2.7-67.5,2-.1,19.3,9.4,30,28.5,32,8.9-.4,16.7-3.4,23.5-9,2.4,3.1,4.6,6.5,6.5,10,1.2,1.5,1.5,3.2,1,5-15.6,10.2-32.5,12.7-50.5,7.5-19.7-9.6-29.4-25.4-29-47.5.3-27.2,13.3-44.6,39-52ZM4441.5,1649.5c17.6-2.7,28,4.7,31,22h-49c2-10.6,8-18,18-22Z"/>
  <path class="st1" d="M6167.5,1632.5c5.7,0,11.4.5,17,1.5.8.3,1.5.8,2,1.5-2.1,6.3-4.8,12.3-8,18-10.3-6.6-19.1-4.9-26.5,5-2.5,4-4.1,8.4-5,13-.5,20.3-.7,40.7-.5,61h-19v-98h19c-.2,4,0,8,.5,12,5-7.6,11.8-12.2,20.5-14Z"/>
  <path class="st18" d="M6406.5,1632.5c25.7-1.6,41.6,10.1,47.5,35,2.6,14.3,1.6,28.3-3,42-9.7,20.4-25.9,28.6-48.5,24.5-18-5.1-28.9-16.9-32.5-35.5-2.8-15.2-1.1-29.9,5-44,7-12.4,17.5-19.8,31.5-22ZM6408.5,1648.5c15.4,0,24.3,7.6,26.5,23,1.4,11.2.4,22.2-3,33-6.8,13.5-17.3,17.3-31.5,11.5-9.1-8.6-13.1-19.3-12-32-.9-12.1,2.8-22.4,11-31,2.8-2.1,5.8-3.6,9-4.5Z"/>
  <path class="st6" d="M6686.5,1632.5c10.6-.9,20.3,1.6,29,7.5,1.5,1.2,2.7,2.7,3.5,4.5,8.4-9.1,18.9-13,31.5-11.5,14.5,2.5,23,11,25.5,25.5.5,24.7.7,49.3.5,74h-19c.2-23.3,0-46.7-.5-70-2.2-8.9-7.9-13.2-17-13-7.4.4-13.1,3.7-17,10-.5,24.3-.7,48.7-.5,73h-19c.2-24.7,0-49.3-.5-74-5-7.9-12.2-10.7-21.5-8.5-5.4,2.1-9.5,5.6-12.5,10.5-.5,24-.7,48-.5,72h-19v-98c4.4-.2,8.7,0,13,.5,1.5,2.9,3.2,5.8,5,8.5,5.4-5.5,11.7-9.2,19-11Z"/>
  <path class="st38" d="M7008.5,1632.5c28.8-1.3,45,12.3,48.5,41,2.5,17.5-1.2,33.5-11,48-11.5,11.3-25.4,15.5-41.5,12.5-18.1-5.1-28.9-16.9-32.5-35.5-2.9-15.2-1.3-29.9,5-44,7.1-12.4,17.6-19.8,31.5-22ZM7011.5,1648.5c12.8-.4,21,5.6,24.5,18,3,11,3,22,0,33-5.4,17.1-16.6,22.6-33.5,16.5-9.1-8.6-13.1-19.3-12-32-.9-12.1,2.8-22.4,11-31,3.1-2.4,6.4-3.9,10-4.5Z"/>
  <path class="st28" d="M7762.5,1632.5c27.9-1.6,44.1,11.4,48.5,39,2.9,17.7-.4,34.1-10,49-13,13.1-28.5,17.3-46.5,12.5-16.8-6.4-26.3-18.6-28.5-36.5-2.4-15.8-.1-30.8,7-45,7.3-10.5,17.1-16.9,29.5-19ZM7765.5,1648.5c12.6-.6,20.8,5.1,24.5,17,4.4,15.8,2.8,30.8-5,45-7,7.8-15.5,10-25.5,6.5-7.8-4.1-12.3-10.6-13.5-19.5-2.8-13.1-1.5-25.8,4-38,3.8-5.8,8.9-9.4,15.5-11Z"/>
  <path class="st5" d="M8044.5,1632.5c24.2-1.6,36.7,9.7,37.5,34,.5,22,.7,44,.5,66h-19c.4-23.7,0-47.4-1.5-71-2.4-8.3-7.9-12.3-16.5-12-8.6.4-15.4,4.1-20.5,11-.5,24-.7,48-.5,72h-19v-98c4.7-.3,9.4,0,14,1,1.4,3.4,2.9,6.7,4.5,10,5-7.3,11.9-11.6,20.5-13Z"/>
  <path class="st15" d="M4680.5,1634.5h31v98h-18v-82h-13v-16Z"/>
  <path class="st8" d="M7496.5,1634.5h32v98h-19v-82h-13v-16Z"/>
  <path class="st11" d="M5381.5,1669.5h39v18h-39v-18Z"/>
</svg>