<?xml version="1.0" encoding="UTF-8"?>
<svg id="Layer_1" xmlns="http://www.w3.org/2000/svg" version="1.1" viewBox="0 0 8503.9 8503.9">
  <!-- Generator: Adobe Illustrator 29.8.1, SVG Export Plug-In . SVG Version: 2.1.1 Build 2)  -->
  <defs>
    <style>
      .st0 {
        opacity: 1;
      }

      .st0, .st1, .st2, .st3, .st4, .st5, .st6, .st7, .st8, .st9, .st10, .st11, .st12, .st13, .st14, .st15, .st16, .st17, .st18, .st19, .st20, .st21, .st22, .st23, .st24, .st25, .st26, .st27, .st28, .st29, .st30, .st31, .st32, .st33, .st34, .st35, .st36, .st37, .st38, .st39 {
        isolation: isolate;
      }

      .st0, .st1, .st2, .st3, .st4, .st5, .st6, .st7, .st8, .st9, .st10, .st11, .st12, .st13, .st14, .st15, .st16, .st17, .st18, .st19, .st20, .st21, .st23, .st24, .st25, .st26, .st27, .st28, .st29, .st30, .st31, .st32, .st33, .st34, .st35, .st36, .st37, .st38, .st39 {
        fill-rule: evenodd;
      }

      .st0, .st2, .st4, .st9, .st10, .st13, .st16, .st17, .st20, .st26, .st28, .st30, .st32, .st37 {
        fill: #2d2f31;
      }

      .st1 {
        opacity: .9;
      }

      .st1, .st5, .st6, .st7, .st8, .st11, .st12, .st15, .st18, .st23, .st24, .st25, .st29, .st34, .st36, .st39 {
        fill: #5ab847;
      }

      .st2 {
        opacity: 1;
      }

      .st3 {
        opacity: 1;
      }

      .st3, .st14, .st21, .st31 {
        fill: #404041;
      }

      .st4 {
        opacity: .9;
      }

      .st5 {
        opacity: .9;
      }

      .st6 {
        opacity: .9;
      }

      .st7 {
        opacity: .9;
      }

      .st8 {
        opacity: .9;
      }

      .st9 {
        opacity: 1;
      }

      .st10 {
        opacity: 1;
      }

      .st11 {
        opacity: .9;
      }

      .st12 {
        opacity: 1;
      }

      .st13 {
        opacity: 1;
      }

      .st14 {
        opacity: 1;
      }

      .st15 {
        opacity: 1;
      }

      .st16 {
        opacity: 1;
      }

      .st17 {
        opacity: 1;
      }

      .st18 {
        opacity: .9;
      }

      .st19, .st22, .st31, .st33 {
        opacity: 1;
      }

      .st19, .st27, .st35, .st38 {
        fill: #3f4040;
      }

      .st20 {
        opacity: 1;
      }

      .st21, .st30 {
        opacity: 1;
      }

      .st22, .st33 {
        fill: #5ab846;
      }

      .st23 {
        opacity: .9;
      }

      .st24 {
        opacity: .9;
      }

      .st25 {
        opacity: .9;
      }

      .st26 {
        opacity: 1;
      }

      .st27 {
        opacity: 1;
      }

      .st28 {
        opacity: 1;
      }

      .st29 {
        opacity: .9;
      }

      .st32 {
        opacity: 1;
      }

      .st34 {
        opacity: .9;
      }

      .st35 {
        opacity: 1;
      }

      .st36 {
        opacity: .9;
      }

      .st37 {
        opacity: 1;
      }

      .st38 {
        opacity: 1;
      }

      .st39 {
        opacity: .9;
      }
    </style>
  </defs>
  <g>
    <path class="st4" d="M7296.4,4794.5c20.5-.5,41.1,0,61.6,1.4-22.5,35.1-45.3,70-68.4,104.7-14.6.7-29.2.9-43.8.7,16.1-35.9,33-71.5,50.6-106.7Z"/>
    <path class="st26" d="M1324.6,4828.7h58.8c-.2,126.3,0,252.6.7,379,5,30.8,23,46.7,54,47.9v54.7c-30.6,2.1-58.4-5.5-83.5-22.6-17.6-16.4-27.4-36.7-29.4-60.9-.7-132.7-.9-265.4-.7-398.1Z"/>
    <path class="st13" d="M1507.9,4828.7h60.2c-.2,127.2,0,254.5.7,381.7,5.5,30,23.5,45.1,54,45.1v54.7c-27.2,1.5-52.7-4.2-76.6-17.1-24.8-19-37.3-44.3-37.6-75.9-.7-129.5-.9-259-.7-388.5Z"/>
    <path class="st30" d="M3482.1,4834.1c30.6-.6,60.2,4.2,88.9,14.4,6.4,3.2,12.3,7.1,17.8,11.6-6.4,18.7-12.8,37.4-19.2,56.1-25.7-16.2-53.8-25.3-84.1-27.4-48,4.7-69.4,31.2-64.3,79.3,3.1,18.4,12,33.2,26.7,44.5,9.1,5.5,18.2,10.9,27.4,16.4,24,11.3,47.7,23.2,71.1,35.6,27.5,16,46.4,39,56.8,69.1,8.4,29,9.3,58.2,2.7,87.6-19.4,49.9-55.6,79.3-108.8,88.2-35.3,4.9-70,2.1-104-8.2-11.7-4.8-22.8-10.5-33.5-17.1,0-4.2.9-8.3,2.7-12.3,6-16.3,12.6-32.2,19.8-47.9,37.4,27.2,78.5,35.1,123.1,23.9,35.1-17.3,48.6-45.4,40.4-84.1-3.5-15-11-27.6-22.6-37.6-9.8-7.9-20.3-14.7-31.5-20.5-25-11.6-49.6-23.9-73.9-36.9-45.8-30.1-65.6-72.7-59.5-127.9,5.8-45.6,29.8-77.8,71.8-96.5,17-6.2,34.3-9.7,52-10.3Z"/>
    <path class="st30" d="M6036.3,4834.1c29.5-.4,58.2,3.9,86.2,13,8,3.1,14.9,7.6,20.5,13.7-6,18.6-12.4,37.1-19.2,55.4-29.9-19.6-62.8-28-98.5-25.3-32.8,8-49.6,29-50.6,62.9-.5,24.1,8.6,43.7,27.4,58.8,29.5,17.7,60.1,33.7,91.7,47.9,21.1,11.8,38.7,27.5,52.7,47.2,17.9,36.2,22.5,74.1,13.7,113.6-13.7,38.3-39.4,65-77.3,80-30.3,9.8-61.3,12.9-93,9.6-28.4-2.3-54-11.9-76.6-28.7,7.1-19.7,14.8-39.1,23.3-58.1,30.4,21.3,64.1,31.1,101.2,29.4,39.9-5.9,61.8-29,65.7-69.1-.8-23.8-9.9-43.6-27.4-59.5-8.8-6.5-17.9-12.4-27.4-17.8-27.4-12.9-54.3-26.6-80.7-41-42.3-30.2-60.8-71.5-55.4-123.8,6.2-47.7,31.5-80.8,75.9-99.2,15.8-5.1,31.7-8,47.9-8.9Z"/>
    <path class="st30" d="M1092,4836.9h19.2c55.9,155.9,111.6,311.8,166.9,467.9-22.8.2-45.6,0-68.4-.7-10.7-31.9-20.8-64.1-30.1-96.5h-166.9c-10.2,32.5-20.7,64.9-31.5,97.1h-69.8c59.9-156.1,120.1-312,180.6-467.9ZM1097.5,4961.4c22,65.6,43,131.8,62.9,198.4-43.3.2-86.7,0-130-.7,22.8-65.8,45.1-131.7,67-197.7Z"/>
    <path class="st28" d="M1739.1,4839.6c27.9-2.7,43.4,9.8,46.5,37.6-2.4,22.2-14.7,34.8-36.9,37.6-25.3-3.7-37.4-18.3-36.3-43.8,2.8-15.8,11.7-26.3,26.7-31.5Z"/>
    <path class="st37" d="M5272.9,4839.6c33.5-1.4,48.3,14.5,44.5,47.9-9.1,23.6-25.7,31.6-49.9,23.9-20.5-11.9-26.6-29-18.5-51.3,5.3-10.2,13.3-17,23.9-20.5Z"/>
    <path class="st10" d="M6974.8,4873.8h4.1v93h90.3v47.9h-90.3c-.2,60.6,0,121.3.7,182,1.7,47.8,26.1,68.1,73.2,60.9,10.5-2.2,20.5-5.6,30.1-10.3,3.5,18.2,6.7,36.4,9.6,54.7-33.8,8-68,10.1-102.6,6.2-40.3-13.7-63.3-41.8-69.1-84.1-.7-69.8-.9-139.5-.7-209.3h-38.3v-47.9h38.3c-.5-23.7,0-47.4,1.4-71.1,17.9-7.3,35.7-14.6,53.4-21.9Z"/>
    <path class="st30" d="M5118.3,4944.9c2.4.8,4.7,1.9,6.8,3.4,11.5,11,22.4,22.4,32.8,34.2-10.9,9.1-21.9,18.2-32.8,27.4,14.7,23.3,21.6,48.9,20.5,76.6.5,50.5-20.9,88.4-64.3,113.6-11,5-22.4,8.7-34.2,10.9-24.2,2.7-48.4,5.9-72.5,9.6-8.4,2.3-15.9,6.1-22.6,11.6-3.5,6.3-2.3,11.6,3.4,15.7,11.7,3.2,23.5,4.1,35.6,2.7,23.8-4.1,47.8-7,71.8-8.9,73,1.6,105.9,38.6,98.5,110.8-7.5,28.9-24.6,50.1-51.3,63.6-42.9,20.3-87.6,25.3-134.1,15-22.1-4.8-43.1-12.5-62.9-23.3-6-3.4-11.5-7.6-16.4-12.3,10-16.5,20.5-32.7,31.5-48.6,28.3,20.9,60,32.7,95.1,35.6,24.1.3,46.2-5.8,66.4-18.5,19.2-17.1,21.3-36,6.2-56.8-13.4-9.5-28.5-14.1-45.1-13.7-25.7,4.1-51.5,7.7-77.3,10.9-19.2.5-37-4.3-53.4-14.4-16.7-17.3-20.6-37.1-11.6-59.5,12.8-15.4,29-25.9,48.6-31.5-44.3-24.9-66.1-62.9-65.7-114.2.8-54.6,25.9-93.3,75.2-116.3,31.6-10.8,63.5-11.7,95.8-2.7,10.1,2.8,19.5,7.1,28,13,10.6-10.4,19.9-21.8,28-34.2ZM5014.4,5009.2c33.8.6,55.9,17,66.4,49.3,7.8,29.7,3.7,57.5-12.3,83.5-21.7,23.4-47.5,29-77.3,17.1-21.2-13-33.8-31.9-37.6-56.8-4.6-25.7.8-49,16.4-69.8,12-13.4,26.8-21.2,44.5-23.3Z"/>
    <path class="st17" d="M1956.7,4960c29.7-1.6,58.4,2.7,86.2,13,31.6,15,50.5,39.9,56.8,74.6,2,9,3.3,18.2,4.1,27.4,0,55.2,1,110.4,2.7,165.5,2.2,16.3,9.9,29,23.3,38.3.7,10.5.9,21,.7,31.5-19.1,1.1-37.4-2.3-54.7-10.3-11.7-8-19.9-18.8-24.6-32.2-22.1,24.8-50,38.7-83.5,41.7-52.5,7.1-89.7-13.2-111.5-60.9-16.9-65.5,4.8-113.6,65-144.3,40.4-17.9,81.9-21.3,124.5-10.3,1.4-26.3-7.3-48.4-26-66.4-13.9-8.9-29.2-13.2-45.8-13-26.9-.2-51.3,7.4-73.2,22.6-2.3,2.3-4.6,4.6-6.8,6.8-1.3.8-2.4.6-3.4-.7-8.2-16.1-16.2-32.3-23.9-48.6,12-10.6,25.7-18.3,41-23.3,16.2-5.6,32.6-9.4,49.3-11.6ZM2000.4,5132.4c14.9.5,29.5,2.8,43.8,6.8,1.6,26.9,1.8,53.8.7,80.7-30.3,39.7-68.8,50.9-115.6,33.5-11.7-8.1-18.3-19.2-19.8-33.5-1.9-32.8,11.6-57.2,40.4-73.2,16-8.4,32.9-13.2,50.6-14.4Z"/>
    <path class="st10" d="M2334.3,4960c24.4-1.8,47.7,2.5,69.8,13,20.5,12.8,34.4,30.8,41.7,54,4.5,14.3,7.2,28.9,8.2,43.8.7,78,.9,156,.7,233.9h-58.8c.2-71.1,0-142.3-.7-213.4-.2-19.8-4.8-38.5-13.7-56.1-13.2-16.4-30.5-24.2-52-23.3-32,2.1-57.1,16.2-75.2,42.4-.7,83.5-.9,166.9-.7,250.4h-58.8v-337.9c13.7-.2,27.4,0,41,.7,6.2,13.2,11.9,26.7,17.1,40.4,19.5-28.9,46.7-44.8,81.4-47.9Z"/>
    <path class="st0" d="M2669.4,4960c42.4-1.4,80.7,10.2,114.9,34.9-9.3,14.5-19.3,28.4-30.1,41.7-35.5-24.8-73.8-30.5-114.9-17.1-30.2,14.9-49.1,38.8-56.8,71.8-8.3,35.9-6.9,71.4,4.1,106.7,18.8,41,51,61.5,96.5,61.6,28.9-2.1,54.5-12.4,76.6-30.8,1.3-.8,2.4-.6,3.4.7,8.5,16.6,15.8,33.4,21.9,50.6-42,24.8-87.4,34.6-136.1,29.4-66.7-11-109.3-49.1-127.9-114.2-11.2-49.5-7.5-97.9,10.9-145,28.7-56,74.6-86.1,137.5-90.3Z"/>
    <path class="st16" d="M2965,4960c38-2.8,73.1,5.7,105.3,25.3,38.3,29.9,57,69.3,56.1,118.3.2,13-1.2,25.7-4.1,38.3h-235.3c-1.3,30.2,6.6,57.6,23.9,82.1,26.4,28.9,59,40.1,97.8,33.5,23.6-3.7,44.6-13,62.9-28,7.4,11.6,14.5,23.5,21.2,35.6,2.2,2.9,3.1,6.1,2.7,9.6-27.7,20.8-58.9,32.4-93.7,34.9-75.8,7.5-130.3-22.8-163.5-91-19.5-54.9-19.1-109.6,1.4-164.2,25.2-53.7,66.9-85.2,125.2-94.4ZM2967.7,5012c41.7-4.4,72.5,11.6,92.3,47.9,4.9,11.8,7.4,24.2,7.5,36.9h-179.2c7.2-46.4,33.7-74.7,79.3-84.8Z"/>
    <path class="st30" d="M4122.4,4960c73.9-2.9,113.9,32.7,119.7,106.7.7,79.3.9,158.7.7,238h-58.8c.2-73.4,0-146.8-.7-220.3-2.3-57.9-31.7-81-88.2-69.1-21.5,6.7-38.6,19.3-51.3,37.6-.7,83.9-.9,167.8-.7,251.7h-60.2v-337.9c13.7-.2,27.4,0,41,.7,6,13.6,12.1,27,18.5,40.4,18.8-29.1,45.5-45.1,80-47.9Z"/>
    <path class="st16" d="M4443.9,4960c36.1-2.5,69.8,5,101.2,22.6,41.7,29.5,61.7,70.1,60.2,121.8.3,11.8-.9,23.4-3.4,34.9-78.4,2.7-157,3.6-236,2.7-1.3,30.2,6.7,57.5,23.9,82.1,26.8,29.1,59.9,40.3,99.2,33.5,23.3-3.4,43.8-12.8,61.6-28,7,10.7,13.6,21.7,19.8,32.8,2.6,3.8,4,7.9,4.1,12.3-19.5,15.6-41.6,25.8-66.4,30.8-29.1,5.7-58.3,6.2-87.6,1.4-47.2-12.6-81.2-41.1-101.9-85.5-18.3-48.4-20.6-97.7-6.8-147.8,15.4-47.8,45.7-82.2,91-103.3,13.4-5.2,27.1-8.6,41-10.3ZM4446.6,5012c41.7-4.4,72.4,11.6,92.3,47.9,4.9,11.8,7.4,24.2,7.5,36.9h-179.2c7.2-46.4,33.7-74.7,79.3-84.8Z"/>
    <path class="st20" d="M4811.9,4960c18.9.1,37.6,2,56.1,5.5-7.4,20.4-15.6,40.4-24.6,60.2-30.7-20.4-59.2-17.7-85.5,8.2-18.3,20.6-27.8,44.8-28.7,72.5-.7,66.1-.9,132.3-.7,198.4h-58.8v-337.9h58.8c-.2,16.9,0,33.8.7,50.6,17.8-33.5,45.4-52.7,82.8-57.5Z"/>
    <path class="st16" d="M5519.2,4960c39.8-3,76.3,6.3,109.4,28,35.9,29.9,53.2,68.4,52,115.6.3,12-.8,23.9-3.4,35.6-78.4,2.7-157,3.6-236,2.7-1.8,38.2,11,70.3,38.3,96.5,25.5,18.1,53.8,24.5,84.8,19.2,23.3-3.4,43.8-12.8,61.6-28,7.4,11.6,14.5,23.4,21.2,35.6,2.2,2.9,3.1,6.1,2.7,9.6-19.5,15.6-41.6,25.8-66.4,30.8-29.1,5.7-58.3,6.1-87.6,1.4-47.2-12.6-81.2-41.1-101.9-85.5-21.6-57.8-20.7-115.3,2.7-172.4,25.4-51.2,66.2-80.9,122.4-88.9ZM5521.9,5012c41.7-4.4,72.4,11.6,92.3,47.9,4.9,11.8,7.4,24.1,7.5,36.9h-179.2c7.2-46.4,33.7-74.7,79.3-84.8Z"/>
    <path class="st32" d="M6319.5,4960c29.7-1.6,58.4,2.7,86.2,13,31.6,15,50.5,39.9,56.8,74.6,1.9,9.5,3.2,19.1,4.1,28.7.5,51.5.9,103.1,1.4,154.6.7,20,8.9,36,24.6,47.9.7,10.5.9,21,.7,31.5-19.1,1.1-37.4-2.3-54.7-10.3-11.7-8-19.9-18.8-24.6-32.2-22.2,24.8-50,38.7-83.5,41.7-54.2,6.8-91.8-14.9-112.9-65-13.8-57.5,4.2-102,54-133.4,43.4-23.8,89-29.5,136.8-17.1.8-22.3-5.3-42.4-18.5-60.2-15.1-13.7-32.8-20.1-53.4-19.2-21.4.3-41.7,5-60.9,14.4-6.9,4.4-13.3,9.4-19.2,15-1.3.8-2.4.6-3.4-.7-8.2-16.1-16.2-32.3-23.9-48.6,12-10.6,25.7-18.3,41-23.3,16.2-5.6,32.6-9.4,49.3-11.6ZM6363.3,5132.4c14.9.5,29.5,2.8,43.8,6.8,1.6,26.9,1.8,53.8.7,80.7-30.3,39.7-68.8,50.9-115.6,33.5-16-12.7-22.6-29.4-19.8-49.9,4.9-25,18.3-43.9,40.4-56.8,16-8.3,32.9-13.1,50.6-14.4Z"/>
    <path class="st2" d="M6697.1,4960c74-2.9,113.9,32.7,119.7,106.7.7,79.3.9,158.7.7,238h-58.8c.2-72.5,0-145-.7-217.5-.6-20.2-6.1-38.9-16.4-56.1-13.6-13.4-30-19.7-49.3-19.2-31.7,2.5-56.8,16.7-75.2,42.4-.7,83.5-.9,166.9-.7,250.4h-58.8v-337.9c13.7-.2,27.4,0,41,.7,6,13.6,12.1,27,18.5,40.4,18.7-29.4,45.4-45.4,80-47.9Z"/>
    <path class="st16" d="M7266.3,4960c38-2.8,73.1,5.7,105.3,25.3,38.3,29.9,57,69.3,56.1,118.3.2,13-1.2,25.7-4.1,38.3h-235.3c-1.3,30.2,6.6,57.6,23.9,82.1,26.3,29.1,58.9,40.3,97.8,33.5,23.8-3.1,44.8-12.5,62.9-28,6.9,10.8,13.5,21.7,19.8,32.8,2.6,3.8,4,7.9,4.1,12.3-19.5,15.6-41.6,25.8-66.4,30.8-27.2,5.1-54.6,6-82.1,2.7-50-11.3-85.8-40.2-107.4-86.9-20.9-55.6-20.9-111.2,0-166.9,25.2-53.7,66.9-85.2,125.2-94.4ZM7269,5012c41.7-4.4,72.4,11.6,92.3,47.9,4.9,11.8,7.4,24.2,7.5,36.9h-179.2c7.2-46.4,33.7-74.7,79.3-84.8Z"/>
    <path class="st9" d="M1670.7,4966.8h105.3v337.9h-60.2v-285.9h-45.1v-52Z"/>
    <path class="st30" d="M3636.7,4968.2c20.3-1.8,40.8-1.8,61.6,0,31.6,85.3,63.3,170.6,95.1,255.8,28.6-85.2,56.8-170.5,84.8-255.8,20.2-1.4,40.5-1.8,60.9-1.4-46.9,136.8-95,273.1-144.3,409.1-20.9,30-49.4,48.9-85.5,56.8-12.2,2.6-24.5,3.7-36.9,3.4v-54.7c31.4,1.2,57.6-9.8,78.7-32.8,7.6-11.7,10.4-24.4,8.2-38.3-1.5-17.9-5.6-35.3-12.3-52-36.4-97-73.1-193.7-110.1-290Z"/>
    <path class="st2" d="M5204.5,4966.8h104v337.9h-58.8v-285.9h-45.1v-52Z"/>
  </g>
  <g>
    <path class="st35" d="M2123.3,2570.6h857c-312,668.8-624.1,1337.6-936.2,2006.5-5,.8-9.7-.4-14.1-3.4-88.3-46.9-138.7-118.5-151.3-214.9v-1546.9c13.1-95.1,63.1-166.2,149.9-213.5,30.1-14.5,61.7-23.8,94.8-27.8Z"/>
    <path class="st27" d="M3512,2570.6h302.6c-35.8,23.8-58.7,56.3-68.6,97.6-8.2,31.6-12.7,63.7-13.4,96.3h121.6c.2-20.6,2.8-41,7.8-61,2.6-9.1,6.4-17.7,11.3-25.8,3.7-4.4,8.1-7.8,13.4-10.2,98.9-2.2,197.9-2.7,297-1.4,8.5.4,15.3,3.8,20.5,10.2,24.8,39,24.8,77.9,0,116.6-4.4,4.7-9.8,7.6-16.3,8.8-110.8,13.2-221.5,26.3-332.3,39.3-49.7,9-84.3,35.9-103.9,80.7-15.6,39.3-22.1,80-19.8,122-74-157.5-147.3-315.2-219.9-473.2Z"/>
    <path class="st3" d="M4262.9,2570.6h359.2c2,1.3,4.4,1.7,7.1,1.4-135.2,35.1-233.7,112.9-295.6,233.2,5.9-22.8,10.1-45.8,12.7-69.1-2.2-32.3-9-63.9-20.5-94.9-12.7-30.5-33.7-54-62.9-70.5Z"/>
    <path class="st33" d="M6447.2,3846.3c14.6,82,17.8,164.5,4.2,246.7-14.8,89.9-31,178.8-58,234.5-51.6,106.7-102.2,163.5-129.4,183.7-11.4,9.4-30,22.9-42.7,31.3-.7.5-1.4.9-2,1.4-4.8,3.5-29.5,20.6-74.3,40.3-26.2,11.5-54.7,17.4-83.5,17.3-478.3-.4-956.5-.9-1434.8-1.5-.2,0-.5,0-.7,0-95.4-22.9-171.9-72.6-229.5-149.1-7.3-10.5-14.7-20.9-21.9-31.2-27.2-42.4-48.4-87.6-63.6-135.6-31.3-100.8-49.9-203.9-55.9-309.1-1.8-24.8-2.9-49.7-3.5-74.6,0-1.5,1.2-2.7,2.7-2.7h384.9c1.5,0,2.7,1.1,2.7,2.5,1.9,62.6,9.2,124.5,21.8,185.9,7.8,40.2,23.3,77.2,46.6,111.1,0,0,0,.1.1.2,13.4,16.8,31,27,52.7,30.4.2,0,.3,0,.5,0,397.7,1.4,795.3.9,1192.9-1.4.3,0,.5,0,.8-.1,21.7-6.1,39.3-18.1,52.6-35.7,0,0,0-.1.1-.2,20.7-31.7,34.9-66,42.4-102.9,7.4-34,12.9-68.2,16.2-102.8,0-.2,0-.4,0-.5-4.5-43-14.2-85-29-125.8-9.3-25.8-24.1-48.1-44.4-67,0,0-.2-.2-.3-.2-11.6-8.7-24.7-14.5-39.2-17.5s-.4,0-.6,0c-437.7-.7-875.4-.9-1313.2-.7-.2,0-.4,0-.6,0-115.9-24.4-206.1-84.5-270.5-180.3-47.2-74.8-79.8-155.3-97.6-241.3-12.4-59.6-21.1-119.7-25.9-180.2-.1-1.5,1.1-2.8,2.7-2.8h0c1.5,0,2.7-1.2,2.7-2.6v-11c-.2-35.9,2.6-71.6,8.5-107.1,9.5-67.9,26.9-133.9,52.3-197.9,5.5-15.5,12.1-30.4,19.8-44.7,61.8-120.2,160.2-197.9,295-233,.3,0,.7,0,1.1,0,1.3.1,2.3-.2,3.1-.9s1.1-.6,1.7-.6h1443.9c.2,0,.4,0,.6,0,102.9,23.2,184.1,76.5,243.6,159.9,50.1,75.9,84.6,158.2,103.2,246.7,21,97.5,32.5,196,34.6,295.6,0,1.5-1.2,2.7-2.7,2.7h-384.9c-1.5,0-2.7-1.1-2.7-2.5-2.5-67.7-11.2-134.6-26.1-200.9-7.8-34.7-21.9-66.8-42.4-96.2,0,0-.1-.1-.2-.2-10-12.3-22.4-21.5-37.3-27.6,0,0-.2,0-.3,0-5.9-2-11.9-3.3-18.1-4-.1,0-.2,0-.4,0-396.8-1.3-793.5-.9-1190.2,1.4-.2,0-.5,0-.7,0-20.3,5.1-36.9,15.7-49.9,31.8-17.6,24.4-30.4,51-38.2,80-13.4,46.6-20.4,94-21.2,142.2,0,.1,0,.2,0,.4,4.9,41.3,14.8,81.5,29.7,120.5,9.3,23.8,23.7,44.4,43,61.6,0,0,.1.1.2.2,10.4,7.8,22,13.2,34.9,16.1.2,0,.4,0,.6,0,443.3,1.8,886.7,2.7,1330.1,2.7.2,0,.5,0,.7,0,136,33.9,234.7,111.4,295.9,232.4,32.9,67.8,55,138.8,66.5,212.9Z"/>
    <path class="st14" d="M4313.9,2849.8c-25.4,64-42.9,130-52.3,197.9h-407.3c-.2-14,0-28,.7-42,2.1-15.5,7.3-30,15.6-43.4,3.7-4.4,8.1-7.8,13.4-10.2,115-14.3,230-28.3,345.1-42,36.8-9.3,65.1-29.4,84.9-60.3Z"/>
    <path class="st38" d="M3244.7,3065.4c3.7,4.3,6.8,9.3,9.2,14.9,116.3,248.7,233,497.3,350,745.7-239,1.6-478,1.8-717,.7,119.5-253.7,238.7-507.4,357.8-761.2Z"/>
    <path class="st31" d="M4253,3154.9v13.6h-5.7c4.8,61.5,13.6,122.5,26.2,183,17.8,86.1,50.3,166.5,97.6,241.3,64.4,95.8,154.7,156,270.8,180.3v124.7h-390.3c.5,25.8,1.7,51.5,3.5,77.3,6,105.2,24.6,208.3,55.9,309.1-176.4-375.9-351.8-752.3-526.1-1129.3h468.1Z"/>
    <path class="st19" d="M2714.4,4200.2c354-.2,708,0,1062.1.7,62.4,133,124.6,266.1,186.7,399.3-478.5,1.6-956.9,1.8-1435.4.7,62.4-133.5,124.6-267,186.7-400.6Z"/>
    <path class="st21" d="M4374.7,4419.8c7.3,10.3,14.6,20.7,21.9,31.2,57.6,76.5,134.2,126.3,229.8,149.1-56.1,1.7-112.2,1.7-168.3,0-28.2-60-56-120.1-83.4-180.3Z"/>
  </g>
  <g>
    <path class="st12" d="M3099,5625.8h24.6c-.2,48.3,0,96.7.7,145,.8,13.4,7.9,20.7,21.2,21.9v23.3c-16,1.6-29.5-3.4-40.4-15-2.6-4.7-4.5-9.7-5.5-15-.7-53.4-.9-106.7-.7-160.1Z"/>
    <path class="st25" d="M979.8,5627.1c17.7-.7,34.5,2.5,50.6,9.6,1.5,1.7,1.8,3.5.7,5.5-2.1,6.9-5,13.3-8.9,19.2-47.3-19.8-75.4-4.3-84.1,46.5-4.1,25.7,1.4,48.9,16.4,69.8,13.8,13.4,30,17.3,48.6,11.6,8.6-3.4,15.9-8.6,21.9-15.7,5.5,6.7,10.5,13.8,15,21.2-25.4,22.3-54.1,27.7-86.2,16.4-19.6-10.2-32.6-26-39-47.2-8.1-26.9-8.1-53.8,0-80.7,10.7-31.9,32.3-50.6,65-56.1Z"/>
    <path class="st34" d="M2800.7,5629.9c17-2.4,24.1,4.9,21.2,21.9-5.4,8.9-12.9,11.5-22.6,7.5-6.4-5.7-8.5-12.7-6.2-21.2,1.9-3.4,4.4-6.2,7.5-8.2Z"/>
    <path class="st29" d="M4389.1,5629.9c17.8-.2,35.6,0,53.4.7,44.5,4.8,62.5,29.2,54,73.2-6.9,23.8-22.6,37.2-47.2,40.4-11.9,1.7-23.8,1.9-35.6.7v68.4h-27.4c-.9-61.4,0-122.5,2.7-183.3ZM4416.4,5654.5c17.1-1.8,32.9,1.8,47.2,10.9,11.2,17.9,9.2,34.1-6.2,48.6-13.9,6-28.3,7.6-43.1,4.8-.2-10.5-.5-21-.7-31.5,0-11.3,1-22.2,2.7-32.8Z"/>
    <path class="st24" d="M6653.3,5629.9c17.1-2.3,24.2,5,21.2,21.9-8,11.5-17.1,12.4-27.4,2.7-4.1-9.9-2.1-18.1,6.2-24.6Z"/>
    <path class="st7" d="M6324.9,5642.2c2.7,11.8,3.6,24.1,2.7,36.9h34.2v20.5h-34.2c-.6,27.4,0,54.8,2.1,82.1,3.8,7.9,10.2,12,19.2,12.3,6.5-.7,12.7-2.5,18.5-5.5,2.3,8.1,3.6,16.3,4.1,24.6-13.6,2.4-27.3,3.1-41,2.1-16.3-5.3-25.6-16.5-28-33.5-.7-27.4-.9-54.7-.7-82.1h-15v-20.5h15c-.2-9.1,0-18.3.7-27.4,7.7-3.1,15.2-6.3,22.6-9.6Z"/>
    <path class="st29" d="M1349.2,5676.4c37.6-2.3,59.7,15,66.4,52,1.8,17.6.5,35-4.1,52-13.1,28.3-35.2,40-66.4,34.9-27.9-7.1-43.2-25.1-45.8-54-2.8-19.6,0-38.3,8.2-56.1,9.7-15.9,23.6-25.4,41.7-28.7ZM1353.3,5698.3c23.6.6,35.7,12.9,36.3,36.9,2.2,16.4-.5,31.9-8.2,46.5-11.8,13.4-25.8,15.9-41.7,7.5-7.4-6.8-11.7-15.3-13-25.3-2.9-14.8-2-29.4,2.7-43.8,2.1-5.4,5.1-10.2,8.9-14.4,4.8-3.3,9.8-5.8,15-7.5Z"/>
    <path class="st36" d="M1735,5676.4c31.2-2.8,48.3,11.4,51.3,42.4.7,31.5.9,62.9.7,94.4h-26c.6-32.9,0-65.7-2.1-98.5-5.5-13.1-15.3-17.9-29.4-14.4-8.8,2.2-15.9,7-21.2,14.4-.7,32.8-.9,65.7-.7,98.5h-24.6v-134.1c6-.2,11.9,0,17.8.7,2.2,4.7,4.3,9.5,6.2,14.4,6.9-9.9,16.3-15.9,28-17.8Z"/>
    <path class="st8" d="M2087.9,5676.4c16.3-.8,31.3,2.9,45.1,10.9-2.1,8-4.9,15.8-8.2,23.3-11.7-11-25-13.5-39.7-7.5-7.1,8.4-6.2,16.1,2.7,23.3,13.8,6.2,27.1,13.5,39.7,21.9,12.1,15.3,14.2,31.9,6.2,49.9-7.3,9.7-17.1,15.4-29.4,17.1-15.1,2-29.7.2-43.8-5.5-3.2-1.2-6-3-8.2-5.5,2.7-8.2,5.8-16.2,9.6-23.9,9.2,7,19.4,11.5,30.8,13.7,17-1.6,22.5-10.3,16.4-26-3-3.5-6.4-6.4-10.3-8.9-15-5.5-28-14-39-25.3-13.7-30.5-4.3-49.7,28-57.5Z"/>
    <path class="st23" d="M2449.1,5676.4c48.8-1.1,70.9,22.6,66.4,71.1-30.5,2.7-61.2,3.6-92.3,2.7-.2,26.5,12.8,41.1,39,43.8,12.1-.5,22.9-4.6,32.2-12.3,3.3,4.3,6.3,8.8,8.9,13.7,1.6,2.1,2.1,4.4,1.4,6.8-21.4,14-44.4,17.4-69.1,10.3-26.9-13.1-40.2-34.7-39.7-65,.4-37.3,18.2-61,53.4-71.1ZM2449.1,5699.6c24.1-3.7,38.3,6.4,42.4,30.1h-67c2.7-14.6,10.9-24.6,24.6-30.1Z"/>
    <path class="st1" d="M4810.5,5676.4c7.8,0,15.6.6,23.3,2.1,1.1.4,2,1.1,2.7,2.1-2.9,8.6-6.6,16.8-10.9,24.6-14.1-9-26.2-6.7-36.3,6.8-3.4,5.5-5.6,11.4-6.8,17.8-.7,27.8-.9,55.6-.7,83.5h-26v-134.1h26c-.2,5.5,0,11,.7,16.4,6.8-10.4,16.2-16.7,28-19.2Z"/>
    <path class="st18" d="M5137.4,5676.4c35.2-2.1,56.9,13.8,65,47.9,3.6,19.5,2.2,38.7-4.1,57.5-13.3,28-35.4,39.1-66.4,33.5-24.7-6.9-39.5-23.1-44.5-48.6-3.8-20.8-1.5-40.9,6.8-60.2,9.6-17,24-27,43.1-30.1ZM5140.2,5698.3c21.1,0,33.2,10.4,36.3,31.5,1.9,15.4.5,30.4-4.1,45.1-9.3,18.5-23.7,23.7-43.1,15.7-12.5-11.8-17.9-26.4-16.4-43.8-1.2-16.5,3.8-30.6,15-42.4,3.9-2.8,8-4.9,12.3-6.2Z"/>
    <path class="st6" d="M5520.5,5676.4c14.5-1.2,27.7,2.2,39.7,10.3,2.1,1.7,3.7,3.7,4.8,6.2,11.5-12.5,25.9-17.7,43.1-15.7,19.8,3.4,31.4,15,34.9,34.9.7,33.7.9,67.5.7,101.2h-26c.2-31.9,0-63.8-.7-95.8-3-12.1-10.8-18.1-23.3-17.8-10.1.5-17.9,5.1-23.3,13.7-.7,33.3-.9,66.6-.7,99.9h-26c.2-33.8,0-67.5-.7-101.2-6.9-10.8-16.7-14.7-29.4-11.6-7.4,2.8-13.1,7.6-17.1,14.4-.7,32.8-.9,65.7-.7,98.5h-26v-134.1c6-.2,11.9,0,17.8.7,2.1,4,4.4,7.9,6.8,11.6,7.4-7.5,16-12.6,26-15Z"/>
    <path class="st39" d="M5961,5676.4c39.5-1.8,61.6,16.9,66.4,56.1,3.4,23.9-1.6,45.8-15,65.7-15.8,15.5-34.7,21.2-56.8,17.1-24.7-6.9-39.5-23.1-44.5-48.6-4-20.8-1.7-40.9,6.8-60.2,9.7-17,24.1-27.1,43.1-30.1ZM5965.1,5698.3c17.5-.5,28.7,7.7,33.5,24.6,4.2,15.1,4.2,30.2,0,45.1-7.4,23.4-22.7,30.9-45.8,22.6-12.5-11.8-17.9-26.4-16.4-43.8-1.2-16.5,3.8-30.6,15-42.4,4.2-3.2,8.8-5.3,13.7-6.2Z"/>
    <path class="st29" d="M6992.6,5676.4c38.2-2.2,60.3,15.6,66.4,53.4,4,24.2-.6,46.6-13.7,67-17.7,17.9-38.9,23.6-63.6,17.1-23-8.7-36-25.4-39-49.9-3.3-21.6-.2-42.2,9.6-61.6,9.9-14.4,23.4-23.1,40.4-26ZM6996.7,5698.3c17.3-.8,28.5,6.9,33.5,23.3,6.1,21.6,3.8,42.1-6.8,61.6-9.6,10.7-21.2,13.7-34.9,8.9-10.7-5.6-16.9-14.5-18.5-26.7-3.8-18-2-35.3,5.5-52,5.1-7.9,12.2-12.9,21.2-15Z"/>
    <path class="st5" d="M7378.4,5676.4c33.1-2.2,50.3,13.3,51.3,46.5.7,30.1.9,60.2.7,90.3h-26c.6-32.4,0-64.8-2.1-97.1-3.2-11.3-10.8-16.8-22.6-16.4-11.8.6-21.1,5.6-28,15-.7,32.8-.9,65.7-.7,98.5h-26v-134.1c6.4-.5,12.8,0,19.2,1.4,1.9,4.6,4,9.2,6.2,13.7,6.9-9.9,16.3-15.9,28-17.8Z"/>
    <path class="st15" d="M2776.1,5679.1h42.4v134.1h-24.6v-112.2h-17.8v-21.9Z"/>
    <path class="st8" d="M6628.7,5679.1h43.8v134.1h-26v-112.2h-17.8v-21.9Z"/>
    <path class="st11" d="M3735.1,5727h53.4v24.6h-53.4v-24.6Z"/>
  </g>
  <rect class="st22" x="907.9" y="5479.1" width="6523.4" height="86.9"/>
</svg>